#N canvas 775 87 450 309 10;
#N canvas 449 246 450 295 randomizer 1;
#X obj 6 -52 loadbang;
#X obj 6 -30 timer;
#X msg 6 -7 seed \$1;
#X obj 5 177 pack f f;
#X msg 6 16 1;
#X msg 6 39 0;
#X obj 5 130 random 501;
#X obj 68 129 random 501;
#X obj 5 152 / 100;
#X obj 68 150 / 100;
#X obj 5 200 s pos1;
#X obj 6 82 del 1000;
#X msg 6 60 stop;
#X text 75 -8 <-- generate similar output from random;
#X text 59 17 <-- switch on metro;
#X text 64 58 <-- stop delay;
#X text 144 126 <-- seek random numbers;
#X obj 5 107 metro 1100;
#X text 76 177 <-- send pos1 to mains;
#X connect 0 0 1 0;
#X connect 0 0 4 0;
#X connect 1 0 2 0;
#X connect 2 0 6 0;
#X connect 2 0 7 0;
#X connect 3 0 10 0;
#X connect 4 0 11 0;
#X connect 4 0 17 0;
#X connect 5 0 12 0;
#X connect 5 0 17 0;
#X connect 6 0 8 0;
#X connect 7 0 3 0;
#X connect 7 0 9 0;
#X connect 8 0 3 0;
#X connect 9 0 3 0;
#X connect 11 0 17 0;
#X connect 12 0 11 0;
#X connect 17 0 6 0;
#X connect 17 0 7 0;
#X restore 8 -196 pd randomizer;
#N canvas 864 262 450 300 mains 1;
#X obj 6 5 inlet;
#X floatatom 6 49 5 0 0 0 - - -;
#X obj 6 71 print pos1;
#X obj 6 27 r pos1;
#X text 4 92 implementation of pause feature;
#X text 60 24 <-- receive pos1 at mains;
#X connect 3 0 1 0;
#X connect 3 0 2 0;
#X restore 9 -169 pd mains;
