#N canvas 243 106 472 430 10;
#X obj -221 -244 nbx 5 14 -1e+037 1e+037 0 0 empty empty empty 0 -8
0 10 -262144 -1 -1 98 256;
#N canvas 0 0 450 300 noise 0;
#X obj 60 34 inlet;
#X obj 64 80 outlet;
#X restore -201 -226 pd noise 400;
#X obj -218 -198 out~ 2 0;
#X obj -218 -263 hsl 128 15 0 127 0 0 empty empty empty -2 -8 0 10
-262144 -1 -1 900 1;
#X floatatom -241 -136 5 0 0 0 - - -;
#N canvas 550 272 450 300 reverb 0;
#X obj 122 66 inlet;
#X obj 143 135 outlet;
#X obj 225 134 outlet;
#X obj 246 43 inlet;
#X restore -201 -81 pd reverb;
#X floatatom -136 -97 5 0 0 0 - - -;
#X obj -241 -51 output~;
#N canvas 0 0 450 300 input 0;
#X obj 106 57 inlet;
#X obj 108 113 outlet;
#X restore -241 -116 pd input;
#X text -197 -136 <-- pitch;
#X text -151 -244 <-- shift-click for fine-tuning;
#X obj -242 -325 bng 15 250 50 0 empty empty empty 17 7 0 10 -262144
-1 -1;
#X msg -212 -285 set \$1;
#X floatatom -212 -305 5 0 0 0 - - -;
#X floatatom -221 -325 5 0 0 0 - - -;
#X floatatom -142 -324 5 0 0 0 - - -;
#X msg -142 -305 set \$1;
#X obj -142 -285 s foo_rcv;
#X obj -221 -225 bng 15 250 50 0 empty empty empty 17 7 0 10 -262144
-1 -1;
#X obj -101 -226 r foo_snd;
#X floatatom -101 -205 5 0 0 0 - - -;
#X connect 0 0 1 0;
#X connect 0 0 18 0;
#X connect 1 0 2 0;
#X connect 1 0 2 1;
#X connect 3 0 0 0;
#X connect 4 0 8 0;
#X connect 5 0 7 0;
#X connect 5 1 7 1;
#X connect 6 0 5 1;
#X connect 8 0 5 0;
#X connect 8 0 7 0;
#X connect 11 0 3 0;
#X connect 12 0 3 0;
#X connect 13 0 12 0;
#X connect 14 0 3 0;
#X connect 15 0 16 0;
#X connect 16 0 17 0;
#X connect 19 0 20 0;
